# xmcd
#
# Track frame offsets: 
#        150
#        17978
#        33863
#        45608
#        64723
#        87508
#        124581
#        145368
#
# Disc length: 2600 seconds
#
# Revision: 0
# Processed by: cddbd v1.5.2PL0 Copyright (c) Steve Scherf et al.
# Submitted via: ExactAudioCopy v0.99pb3
#
DISCID=690a2608
DTITLE=Anonymeye - Anonymeye Motel
DYEAR=2006
DGENRE=Country
TTITLE0=Suburban Shopping Centre Carpark
TTITLE1=Off-Peak, Off-Colour
TTITLE2=A Walk Down the Street
TTITLE3=Life in Suburbia
TTITLE4=Pacific Highway, 3pm
TTITLE5=Pacific Highway, 3am
TTITLE6=Anonymeye Motel
TTITLE7=Reception
EXTD=
EXTT0=
EXTT1=
EXTT2=
EXTT3=
EXTT4=
EXTT5=
EXTT6=
EXTT7=
PLAYORDER=
